# Created by Kenney (www.kenney.nl)

mtllib Dollor sign.mtl

g mergedBlocks

v 0.4 2.528 -0.09999999
v 0.4 2.528 0
v 0.3 2.528 -0.09999999
v 0.3 2.528 0
v 0.3 0.4000001 -0.09999999
v 0.4 0.4000001 -0.09999999
v 0.3 0.4000001 0
v 0.4 0.4000001 0
v 0.73816 1.396 -0.1
v 0.73816 1.168 -0.1
v 0.73816 1.396 0
v 0.73816 1.168 0
v 0.73816 2.08 -0.1
v 0.73816 1.852 -0.1
v 0.73816 2.08 0
v 0.73816 1.852 0
v -0.04592 1.852 -0.1
v -0.04592 1.624 -0.1
v -0.04592 1.852 0
v -0.04592 1.624 0
v -0.43796 1.624 -0.1
v -0.43796 1.852 -0.1
v -0.43796 1.624 0
v -0.43796 1.852 0
v -0.43796 0.94 -0.1
v -0.43796 1.168 -0.1
v -0.43796 0.94 0
v -0.43796 1.168 0
v 0.34612 0.94 0
v 0.34612 0.94 -0.1
v 0.64015 1.567 -0.1
v 0.64015 1.567 0
v 0.34612 1.624 -0.1
v 0.34612 1.624 0
v 0.34612 1.168 -0.1
v 0.34612 1.168 0
v 0.34612 1.396 -0.1
v 0.34612 1.396 0
v -0.04592 1.396 0
v -0.04592 1.396 -0.1
v -0.33995 1.453 -0.1
v -0.33995 1.453 0
v -0.04592 2.08 -0.1
v -0.04592 2.08 0
v -0.33995 2.023 -0.1
v -0.33995 2.023 0
v 0.64015 0.997 -0.1
v 0.64015 0.997 0
v 0 2.528 -0.09999999
v 0 2.528 0
v -0.09999999 2.528 -0.09999999
v -0.09999999 2.528 0
v -0.09999999 0.4000001 -0.09999999
v 0 0.4000001 -0.09999999
v -0.09999999 0.4000001 0
v 0 0.4000001 0

vn 0 1 0
vn 0 0 -1
vn -1 0 0
vn 0 0 1
vn 1 0 0
vn 0 -1 0
vn 0.5027355 0.8644404 0
vn 0.8675961 0.4972695 0
vn 0.1903147 0.9817231 0
vn -0.5027355 -0.8644404 0
vn -0.8675961 -0.4972695 0
vn -0.1903147 -0.9817231 0
vn -0.8675961 0.4972695 0
vn -0.5027355 0.8644404 0
vn -0.1903147 0.9817231 0
vn 0.8675961 -0.4972695 0
vn 0.5027355 -0.8644404 0
vn 0.1903147 -0.9817231 0

vt 0 -0.09999999
vt 0 0
vt 0.09999999 -0.09999999
vt 0.09999999 0
vt 0.09999999 0.4000001
vt 0 0.4000001
vt 0.09999999 2.528
vt 0 2.528
vt -0.09999999 0.4000001
vt -0.09999999 2.528
vt 0 0.09999999
vt 0.09999999 0.09999999
vt 0.1 1.396
vt 0.1 1.168
vt 0 1.396
vt 0 1.168
vt 0.1 2.08
vt 0.1 1.852
vt 0 2.08
vt 0 1.852
vt 0.1 1.624
vt 0 1.624
vt -0.1 1.624
vt -0.1 1.852
vt -0.73816 0
vt -0.73816 0.1
vt 0.04592001 0
vt 0.04592001 0.1
vt -0.1 0.94
vt -0.1 1.168
vt 0 0.94
vt -0.34612 0
vt -0.34612 0.1
vt 0.43796 0
vt 0.43796 0.1
vt 0.1 1.567
vt 0 1.567
vt -0.64015 -0.1
vt -0.64015 0
vt -0.34612 -0.1
vt 0.43796 -0.1
vt -0.1 1.396
vt -0.1 1.453
vt 0 1.453
vt 0.04592001 -0.1
vt -0.73816 -0.1
vt 0.33995 0
vt 0.33995 0.1
vt -0.1 2.023
vt 0 2.023
vt 0.33995 -0.1
vt 0.1 0.997
vt 0 0.997
vt -0.64015 0.1
vt 0.43796 0.94
vt -0.34612 0.94
vt 0.43796 1.168
vt -0.64015 0.997
vt -0.34612 1.168
vt -0.73816 1.168
vt -0.34612 1.396
vt -0.73816 1.396
vt 0.04592001 1.396
vt 0.33995 1.453
vt -0.64015 1.567
vt 0.43796 1.624
vt 0.04592001 1.624
vt 0.04592001 1.852
vt 0.43796 1.852
vt 0.33995 2.023
vt -0.73816 1.852
vt -0.73816 2.08
vt 0.04592001 2.08
vt -0.34612 1.624
vt 0.73816 1.852
vt -0.04592001 1.852
vt 0.73816 2.08
vt -0.43796 1.852
vt -0.33995 2.023
vt -0.04592001 2.08
vt 0.64015 0.997
vt 0.34612 1.168
vt 0.73816 1.168
vt 0.34612 1.396
vt 0.73816 1.396
vt -0.04592001 1.396
vt -0.33995 1.453
vt 0.64015 1.567
vt -0.43796 1.624
vt -0.04592001 1.624
vt 0.34612 1.624
vt -0.43796 0.94
vt -0.43796 1.168
vt 0.34612 0.94

usemtl wood(Clone)

f 3/3/1 2/2/1 1/1/1
f 2/2/1 3/3/1 4/4/1
f 3/7/2 6/6/2 5/5/2
f 6/6/2 3/7/2 1/8/2
f 7/6/3 3/10/3 5/9/3
f 3/10/3 7/6/3 4/8/3
f 2/8/4 7/9/4 8/6/4
f 7/9/4 2/8/4 4/10/4
f 2/8/5 6/5/5 1/7/5
f 6/5/5 2/8/5 8/6/5
f 7/4/6 6/11/6 8/2/6
f 6/11/6 7/4/6 5/12/6
f 11/15/5 10/14/5 9/13/5
f 10/14/5 11/15/5 12/16/5
f 15/19/5 14/18/5 13/17/5
f 14/18/5 15/19/5 16/20/5
f 19/20/5 18/21/5 17/18/5
f 18/21/5 19/20/5 20/22/5
f 23/22/3 22/24/3 21/23/3
f 22/24/3 23/22/3 24/20/3
f 19/27/6 14/26/6 16/25/6
f 14/26/6 19/27/6 17/28/6
f 27/31/3 26/30/3 25/29/3
f 26/30/3 27/31/3 28/16/3
f 27/34/6 30/33/6 29/32/6
f 30/33/6 27/34/6 25/35/6
f 32/37/7 9/13/8 31/36/7
f 9/13/8 32/37/7 11/15/8
f 33/40/9 32/39/7 31/38/7
f 32/39/7 33/40/9 34/32/9
f 26/41/1 36/32/1 35/40/1
f 36/32/1 26/41/1 28/34/1
f 36/16/3 37/42/3 35/30/3
f 37/42/3 36/16/3 38/15/3
f 39/27/6 37/33/6 38/32/6
f 37/33/6 39/27/6 40/28/6
f 42/44/10 21/23/11 41/43/10
f 21/23/11 42/44/10 23/22/11
f 18/45/1 34/32/1 33/40/1
f 34/32/1 18/45/1 20/27/1
f 43/45/1 15/25/1 13/46/1
f 15/25/1 43/45/1 44/27/1
f 42/47/10 40/28/12 39/27/12
f 40/28/12 42/47/10 41/48/10
f 24/20/13 45/49/14 22/24/13
f 45/49/14 24/20/13 46/50/14
f 45/51/14 44/27/15 43/45/15
f 44/27/15 45/51/14 46/47/14
f 12/16/16 47/52/17 10/14/16
f 47/52/17 12/16/16 48/53/17
f 29/32/18 47/54/17 48/39/17
f 47/54/17 29/32/18 30/33/18
f 26/57/2 30/56/2 25/55/2
f 30/56/2 26/57/2 47/58/2
f 47/58/2 26/57/2 35/59/2
f 47/58/2 35/59/2 10/60/2
f 10/60/2 35/59/2 37/61/2
f 10/60/2 37/61/2 9/62/2
f 41/64/2 37/61/2 40/63/2
f 37/61/2 41/64/2 9/62/2
f 9/62/2 41/64/2 31/65/2
f 31/65/2 41/64/2 21/66/2
f 31/65/2 21/66/2 18/67/2
f 18/67/2 21/66/2 17/68/2
f 17/68/2 21/66/2 22/69/2
f 17/68/2 22/69/2 45/70/2
f 17/68/2 45/70/2 14/71/2
f 14/71/2 45/70/2 13/72/2
f 13/72/2 45/70/2 43/73/2
f 33/74/2 31/65/2 18/67/2
f 15/77/4 19/76/4 16/75/4
f 19/76/4 15/77/4 24/78/4
f 24/78/4 15/77/4 46/79/4
f 46/79/4 15/77/4 44/80/4
f 12/83/4 36/82/4 48/81/4
f 36/82/4 12/83/4 38/84/4
f 38/84/4 12/83/4 11/85/4
f 38/84/4 11/85/4 39/86/4
f 39/86/4 11/85/4 42/87/4
f 42/87/4 11/85/4 32/88/4
f 42/87/4 32/88/4 23/89/4
f 23/89/4 32/88/4 20/90/4
f 20/90/4 32/88/4 34/91/4
f 23/89/4 20/90/4 19/76/4
f 23/89/4 19/76/4 24/78/4
f 29/94/4 28/93/4 27/92/4
f 28/93/4 29/94/4 48/81/4
f 28/93/4 48/81/4 36/82/4
f 51/3/1 50/2/1 49/1/1
f 50/2/1 51/3/1 52/4/1
f 51/7/2 54/6/2 53/5/2
f 54/6/2 51/7/2 49/8/2
f 55/6/3 51/10/3 53/9/3
f 51/10/3 55/6/3 52/8/3
f 50/8/4 55/9/4 56/6/4
f 55/9/4 50/8/4 52/10/4
f 50/8/5 54/5/5 49/7/5
f 54/5/5 50/8/5 56/6/5
f 55/4/6 54/11/6 56/2/6
f 54/11/6 55/4/6 53/12/6

